ISO-10303-21;
HEADER;
FILE_DESCRIPTION((''),'2;1');
FILE_NAME('REVOLVECLUTCH','2026-07-24T13:16:06',('cayde'),(''),
'CREO PARAMETRIC BY PTC INC, 2024344','CREO PARAMETRIC BY PTC INC, 2024344','');
FILE_SCHEMA(('CONFIG_CONTROL_DESIGN'));
ENDSEC;
DATA;
#1=CARTESIAN_POINT('',(0.E0,-1.250397476444E0,1.469214213220E0));
#2=DIRECTION('',(0.E0,1.E0,0.E0));
#3=DIRECTION('',(1.E0,0.E0,0.E0));
#4=AXIS2_PLACEMENT_3D('',#1,#2,#3);
#6=CARTESIAN_POINT('',(0.E0,-1.250397476444E0,1.469214213220E0));
#7=DIRECTION('',(0.E0,1.E0,0.E0));
#8=DIRECTION('',(-1.E0,0.E0,0.E0));
#9=AXIS2_PLACEMENT_3D('',#6,#7,#8);
#11=DIRECTION('',(0.E0,1.E0,0.E0));
#12=VECTOR('',#11,2.500901269971E-1);
#13=CARTESIAN_POINT('',(0.E0,-1.250397476444E0,4.693207269443E-1));
#14=LINE('',#13,#12);
#15=DIRECTION('',(0.E0,1.E0,0.E0));
#16=VECTOR('',#15,2.500901269971E-1);
#17=CARTESIAN_POINT('',(0.E0,-1.250397476444E0,2.469107699497E0));
#18=LINE('',#17,#16);
#19=CARTESIAN_POINT('',(0.E0,-1.250397476444E0,1.469214213220E0));
#20=DIRECTION('',(0.E0,1.E0,0.E0));
#21=DIRECTION('',(0.E0,0.E0,-1.E0));
#22=AXIS2_PLACEMENT_3D('',#19,#20,#21);
#24=CARTESIAN_POINT('',(0.E0,-1.250397476444E0,1.469214213220E0));
#25=DIRECTION('',(0.E0,-1.E0,0.E0));
#26=DIRECTION('',(0.E0,0.E0,-1.E0));
#27=AXIS2_PLACEMENT_3D('',#24,#25,#26);
#29=CARTESIAN_POINT('',(0.E0,-1.000307349447E0,1.469214213220E0));
#30=DIRECTION('',(0.E0,-1.E0,0.E0));
#31=DIRECTION('',(0.E0,0.E0,-1.E0));
#32=AXIS2_PLACEMENT_3D('',#29,#30,#31);
#34=CARTESIAN_POINT('',(0.E0,-1.000307349447E0,1.469214213220E0));
#35=DIRECTION('',(0.E0,1.E0,0.E0));
#36=DIRECTION('',(0.E0,0.E0,-1.E0));
#37=AXIS2_PLACEMENT_3D('',#34,#35,#36);
#39=DIRECTION('',(0.E0,1.E0,0.E0));
#40=VECTOR('',#39,2.500901269971E-1);
#41=CARTESIAN_POINT('',(0.E0,-1.000307349447E0,6.692060198570E-1));
#42=LINE('',#41,#40);
#43=DIRECTION('',(0.E0,1.E0,0.E0));
#44=VECTOR('',#43,2.500901269971E-1);
#45=CARTESIAN_POINT('',(0.E0,-1.000307349447E0,2.269222406584E0));
#46=LINE('',#45,#44);
#47=CARTESIAN_POINT('',(0.E0,-1.000307349447E0,1.469214213220E0));
#48=DIRECTION('',(0.E0,1.E0,0.E0));
#49=DIRECTION('',(0.E0,0.E0,-1.E0));
#50=AXIS2_PLACEMENT_3D('',#47,#48,#49);
#52=CARTESIAN_POINT('',(0.E0,-1.000307349447E0,1.469214213220E0));
#53=DIRECTION('',(0.E0,-1.E0,0.E0));
#54=DIRECTION('',(0.E0,0.E0,-1.E0));
#55=AXIS2_PLACEMENT_3D('',#52,#53,#54);
#57=CARTESIAN_POINT('',(0.E0,-7.502172224498E-1,1.469214213220E0));
#58=DIRECTION('',(0.E0,-1.E0,0.E0));
#59=DIRECTION('',(0.E0,0.E0,-1.E0));
#60=AXIS2_PLACEMENT_3D('',#57,#58,#59);
#62=CARTESIAN_POINT('',(0.E0,-7.502172224498E-1,1.469214213220E0));
#63=DIRECTION('',(0.E0,1.E0,0.E0));
#64=DIRECTION('',(0.E0,0.E0,-1.E0));
#65=AXIS2_PLACEMENT_3D('',#62,#63,#64);
#67=DIRECTION('',(0.E0,1.E0,0.E0));
#68=VECTOR('',#67,1.241249747495E0);
#69=CARTESIAN_POINT('',(0.E0,-7.502172224498E-1,4.693207269443E-1));
#70=LINE('',#69,#68);
#71=DIRECTION('',(0.E0,1.E0,0.E0));
#72=VECTOR('',#71,1.241249747495E0);
#73=CARTESIAN_POINT('',(0.E0,-7.502172224498E-1,2.469107699497E0));
#74=LINE('',#73,#72);
#75=CARTESIAN_POINT('',(0.E0,-7.502172224498E-1,1.469214213220E0));
#76=DIRECTION('',(0.E0,1.E0,0.E0));
#77=DIRECTION('',(0.E0,0.E0,-1.E0));
#78=AXIS2_PLACEMENT_3D('',#75,#76,#77);
#80=CARTESIAN_POINT('',(0.E0,-7.502172224498E-1,1.469214213220E0));
#81=DIRECTION('',(0.E0,-1.E0,0.E0));
#82=DIRECTION('',(0.E0,0.E0,-1.E0));
#83=AXIS2_PLACEMENT_3D('',#80,#81,#82);
#85=CARTESIAN_POINT('',(0.E0,4.910325250448E-1,1.469214213220E0));
#86=DIRECTION('',(0.E0,-1.E0,0.E0));
#87=DIRECTION('',(0.E0,0.E0,-1.E0));
#88=AXIS2_PLACEMENT_3D('',#85,#86,#87);
#90=CARTESIAN_POINT('',(0.E0,4.910325250448E-1,2.192305999472E-1));
#91=DIRECTION('',(-1.E0,0.E0,0.E0));
#92=DIRECTION('',(0.E0,0.E0,1.E0));
#93=AXIS2_PLACEMENT_3D('',#90,#91,#92);
#95=CARTESIAN_POINT('',(0.E0,4.910325250448E-1,2.719197826494E0));
#96=DIRECTION('',(1.E0,0.E0,0.E0));
#97=DIRECTION('',(0.E0,0.E0,-1.E0));
#98=AXIS2_PLACEMENT_3D('',#95,#96,#97);
#100=CARTESIAN_POINT('',(0.E0,4.910325250448E-1,1.469214213220E0));
#101=DIRECTION('',(0.E0,1.E0,0.E0));
#102=DIRECTION('',(0.E0,0.E0,-1.E0));
#103=AXIS2_PLACEMENT_3D('',#100,#101,#102);
#105=CARTESIAN_POINT('',(0.E0,7.397049405981E-1,1.469214213220E0));
#106=DIRECTION('',(0.E0,-1.E0,0.E0));
#107=DIRECTION('',(0.E0,0.E0,-1.E0));
#108=AXIS2_PLACEMENT_3D('',#105,#106,#107);
#110=CARTESIAN_POINT('',(0.E0,7.397049405981E-1,1.469214213220E0));
#111=DIRECTION('',(0.E0,1.E0,0.E0));
#112=DIRECTION('',(0.E0,0.E0,-1.E0));
#113=AXIS2_PLACEMENT_3D('',#110,#111,#112);
#115=CARTESIAN_POINT('',(0.E0,4.896148136010E-1,-9.253450432141E-1));
#116=DIRECTION('',(-1.E0,0.E0,0.E0));
#117=DIRECTION('',(0.E0,1.E0,0.E0));
#118=AXIS2_PLACEMENT_3D('',#115,#116,#117);
#120=CARTESIAN_POINT('',(0.E0,4.896148136010E-1,3.863773469655E0));
#121=DIRECTION('',(1.E0,0.E0,0.E0));
#122=DIRECTION('',(0.E0,1.E0,0.E0));
#123=AXIS2_PLACEMENT_3D('',#120,#121,#122);
#125=CARTESIAN_POINT('',(0.E0,7.397049405981E-1,1.469214213220E0));
#126=DIRECTION('',(0.E0,1.E0,0.E0));
#127=DIRECTION('',(0.E0,0.E0,-1.E0));
#128=AXIS2_PLACEMENT_3D('',#125,#126,#127);
#130=CARTESIAN_POINT('',(0.E0,7.397049405981E-1,1.469214213220E0));
#131=DIRECTION('',(0.E0,-1.E0,0.E0));
#132=DIRECTION('',(0.E0,0.E0,-1.E0));
#133=AXIS2_PLACEMENT_3D('',#130,#131,#132);
#135=CARTESIAN_POINT('',(0.E0,6.572851548188E-1,1.469214213220E0));
#136=DIRECTION('',(0.E0,-1.E0,0.E0));
#137=DIRECTION('',(0.E0,0.E0,-1.E0));
#138=AXIS2_PLACEMENT_3D('',#135,#136,#137);
#140=DIRECTION('',(0.E0,-9.781476007338E-1,-2.079116908178E-1));
#141=VECTOR('',#140,5.474443391310E-1);
#142=CARTESIAN_POINT('',(0.E0,6.572851548188E-1,-1.110902927168E0));
#143=LINE('',#142,#141);
#144=DIRECTION('',(0.E0,-9.781476007338E-1,2.079116908178E-1));
#145=VECTOR('',#144,5.474443391310E-1);
#146=CARTESIAN_POINT('',(0.E0,6.572851548188E-1,4.049331353609E0));
#147=LINE('',#146,#145);
#148=CARTESIAN_POINT('',(0.E0,6.572851548188E-1,1.469214213220E0));
#149=DIRECTION('',(0.E0,1.E0,0.E0));
#150=DIRECTION('',(0.E0,0.E0,-1.E0));
#151=AXIS2_PLACEMENT_3D('',#148,#149,#150);
#153=DIRECTION('',(0.E0,2.079116908178E-1,-9.781476007338E-1));
#154=VECTOR('',#153,2.500901269971E-1);
#155=CARTESIAN_POINT('',(0.E0,1.218037879625E-1,-1.224723005345E0));
#156=LINE('',#155,#154);
#157=DIRECTION('',(0.E0,2.079116908178E-1,9.781476007338E-1));
#158=VECTOR('',#157,2.500901269971E-1);
#159=CARTESIAN_POINT('',(0.E0,1.218037879625E-1,4.163151431786E0));
#160=LINE('',#159,#158);
#161=CARTESIAN_POINT('',(0.E0,1.218037879625E-1,1.469214213220E0));
#162=DIRECTION('',(0.E0,1.E0,0.E0));
#163=DIRECTION('',(0.E0,0.E0,-1.E0));
#164=AXIS2_PLACEMENT_3D('',#161,#162,#163);
#166=CARTESIAN_POINT('',(0.E0,1.218037879625E-1,1.469214213220E0));
#167=DIRECTION('',(0.E0,-1.E0,0.E0));
#168=DIRECTION('',(0.E0,0.E0,-1.E0));
#169=AXIS2_PLACEMENT_3D('',#166,#167,#168);
#171=CARTESIAN_POINT('',(0.E0,1.738004491233E-1,1.469214213220E0));
#172=DIRECTION('',(0.E0,-1.E0,0.E0));
#173=DIRECTION('',(0.E0,0.E0,-1.E0));
#174=AXIS2_PLACEMENT_3D('',#171,#172,#173);
#176=DIRECTION('',(0.E0,9.781476007338E-1,2.079116908178E-1));
#177=VECTOR('',#176,1.099836132732E0);
#178=CARTESIAN_POINT('',(0.E0,1.738004491233E-1,-1.469348063035E0));
#179=LINE('',#178,#177);
#180=DIRECTION('',(0.E0,9.781476007338E-1,-2.079116908178E-1));
#181=VECTOR('',#180,1.099836132732E0);
#182=CARTESIAN_POINT('',(0.E0,1.738004491233E-1,4.407776489475E0));
#183=LINE('',#182,#181);
#184=CARTESIAN_POINT('',(0.E0,1.738004491233E-1,1.469214213220E0));
#185=DIRECTION('',(0.E0,1.E0,0.E0));
#186=DIRECTION('',(0.E0,0.E0,-1.E0));
#187=AXIS2_PLACEMENT_3D('',#184,#185,#186);
#189=DIRECTION('',(0.E0,-2.079116908178E-1,9.781476007338E-1));
#190=VECTOR('',#189,2.500901269971E-1);
#191=CARTESIAN_POINT('',(0.E0,1.249602523556E0,-1.240679273056E0));
#192=LINE('',#191,#190);
#193=DIRECTION('',(0.E0,-2.079116908178E-1,-9.781476007338E-1));
#194=VECTOR('',#193,2.500901269971E-1);
#195=CARTESIAN_POINT('',(0.E0,1.249602523556E0,4.179107699497E0));
#196=LINE('',#195,#194);
#197=CARTESIAN_POINT('',(0.E0,1.249602523556E0,1.469214213220E0));
#198=DIRECTION('',(0.E0,1.E0,0.E0));
#199=DIRECTION('',(0.E0,0.E0,-1.E0));
#200=AXIS2_PLACEMENT_3D('',#197,#198,#199);
#202=CARTESIAN_POINT('',(0.E0,1.249602523556E0,1.469214213220E0));
#203=DIRECTION('',(0.E0,-1.E0,0.E0));
#204=DIRECTION('',(0.E0,0.E0,-1.E0));
#205=AXIS2_PLACEMENT_3D('',#202,#203,#204);
#207=CARTESIAN_POINT('',(0.E0,1.197605862395E0,1.469214213220E0));
#208=DIRECTION('',(0.E0,-1.E0,0.E0));
#209=DIRECTION('',(0.E0,0.E0,-1.E0));
#210=AXIS2_PLACEMENT_3D('',#207,#208,#209);
#212=CARTESIAN_POINT('',(0.E0,1.239795067595E0,-7.495483481216E-1));
#213=DIRECTION('',(-1.E0,0.E0,0.E0));
#214=DIRECTION('',(0.E0,-1.686960045433E-1,-9.856681277444E-1));
#215=AXIS2_PLACEMENT_3D('',#212,#213,#214);
#217=CARTESIAN_POINT('',(0.E0,1.239795067595E0,3.687976774562E0));
#218=DIRECTION('',(1.E0,0.E0,0.E0));
#219=DIRECTION('',(0.E0,-1.686960045433E-1,9.856681277444E-1));
#220=AXIS2_PLACEMENT_3D('',#217,#218,#219);
#222=CARTESIAN_POINT('',(0.E0,1.197605862395E0,1.469214213220E0));
#223=DIRECTION('',(0.E0,1.E0,0.E0));
#224=DIRECTION('',(0.E0,0.E0,-1.E0));
#225=AXIS2_PLACEMENT_3D('',#222,#223,#224);
#227=CARTESIAN_POINT('',(0.E0,9.897049405981E-1,1.469214213220E0));
#228=DIRECTION('',(0.E0,1.E0,0.E0));
#229=DIRECTION('',(0.E0,0.E0,-1.E0));
#230=AXIS2_PLACEMENT_3D('',#227,#228,#229);
#232=CARTESIAN_POINT('',(0.E0,9.897049405981E-1,1.469214213220E0));
#233=DIRECTION('',(0.E0,-1.E0,0.E0));
#234=DIRECTION('',(0.E0,0.E0,-1.E0));
#235=AXIS2_PLACEMENT_3D('',#232,#233,#234);
#237=CARTESIAN_POINT('',(0.E0,9.897049405981E-1,1.469214213220E0));
#238=DIRECTION('',(0.E0,-1.E0,0.E0));
#239=DIRECTION('',(1.E0,0.E0,0.E0));
#240=AXIS2_PLACEMENT_3D('',#237,#238,#239);
#242=CARTESIAN_POINT('',(0.E0,9.897049405981E-1,1.469214213220E0));
#243=DIRECTION('',(0.E0,-1.E0,0.E0));
#244=DIRECTION('',(-1.E0,0.E0,0.E0));
#245=AXIS2_PLACEMENT_3D('',#242,#243,#244);
#247=DIRECTION('',(-7.071067811865E-1,-7.071067811865E-1,2.254783611898E-10));
#248=VECTOR('',#247,8.485281373523E-2);
#249=CARTESIAN_POINT('',(5.599999999847E-1,9.897049405828E-1,1.469214213163E0));
#250=LINE('',#249,#248);
#251=DIRECTION('',(7.071067811865E-1,-7.071067811865E-1,-2.254783611898E-10));
#252=VECTOR('',#251,8.485281373523E-2);
#253=CARTESIAN_POINT('',(-5.599999999847E-1,9.897049405828E-1,
1.469214213278E0));
#254=LINE('',#253,#252);
#255=CARTESIAN_POINT('',(0.E0,-1.140397476444E0,1.469214213220E0));
#256=DIRECTION('',(0.E0,1.E0,0.E0));
#257=DIRECTION('',(1.E0,0.E0,0.E0));
#258=AXIS2_PLACEMENT_3D('',#255,#256,#257);
#260=CARTESIAN_POINT('',(0.E0,9.297049405981E-1,1.469214213220E0));
#261=DIRECTION('',(0.E0,-1.E0,0.E0));
#262=DIRECTION('',(-1.E0,0.E0,0.E0));
#263=AXIS2_PLACEMENT_3D('',#260,#261,#262);
#265=DIRECTION('',(1.271732415504E-12,-1.E0,7.914908587455E-12));
#266=VECTOR('',#265,2.070102417024E0);
#267=CARTESIAN_POINT('',(4.999999999898E-1,9.297049405879E-1,1.469214213182E0));
#268=LINE('',#267,#266);
#269=DIRECTION('',(-7.071067811865E-1,7.071067811865E-1,9.022750417735E-11));
#270=VECTOR('',#269,1.555634918543E-1);
#271=CARTESIAN_POINT('',(6.099999999876E-1,-1.250397476432E0,1.469214213184E0));
#272=LINE('',#271,#270);
#273=DIRECTION('',(7.071067811865E-1,7.071067811865E-1,-9.022464946379E-11));
#274=VECTOR('',#273,1.555634918543E-1);
#275=CARTESIAN_POINT('',(-6.099999999876E-1,-1.250397476432E0,
1.469214213257E0));
#276=LINE('',#275,#274);
#277=CARTESIAN_POINT('',(0.E0,-1.140397476444E0,1.469214213220E0));
#278=DIRECTION('',(0.E0,1.E0,0.E0));
#279=DIRECTION('',(-1.E0,0.E0,0.E0));
#280=AXIS2_PLACEMENT_3D('',#277,#278,#279);
#282=CARTESIAN_POINT('',(0.E0,9.297049405981E-1,1.469214213220E0));
#283=DIRECTION('',(0.E0,-1.E0,0.E0));
#284=DIRECTION('',(1.E0,0.E0,0.E0));
#285=AXIS2_PLACEMENT_3D('',#282,#283,#284);
#287=DIRECTION('',(-1.271732415504E-12,-1.E0,-7.914801324837E-12));
#288=VECTOR('',#287,2.070102417024E0);
#289=CARTESIAN_POINT('',(-4.999999999898E-1,9.297049405879E-1,
1.469214213259E0));
#290=LINE('',#289,#288);
#291=CARTESIAN_POINT('',(0.E0,-1.250397476444E0,4.693207269443E-1));
#292=CARTESIAN_POINT('',(0.E0,-1.000307349447E0,4.693207269443E-1));
#293=VERTEX_POINT('',#291);
#294=VERTEX_POINT('',#292);
#295=CARTESIAN_POINT('',(0.E0,-1.000307349447E0,6.692060198570E-1));
#296=CARTESIAN_POINT('',(0.E0,-7.502172224498E-1,6.692060198570E-1));
#297=VERTEX_POINT('',#295);
#298=VERTEX_POINT('',#296);
#299=CARTESIAN_POINT('',(0.E0,-7.502172224498E-1,4.693207269443E-1));
#300=CARTESIAN_POINT('',(0.E0,4.910325250448E-1,4.693207269443E-1));
#301=VERTEX_POINT('',#299);
#302=VERTEX_POINT('',#300);
#303=CARTESIAN_POINT('',(0.E0,7.397049405981E-1,2.458219775782E-1));
#304=VERTEX_POINT('',#303);
#305=CARTESIAN_POINT('',(0.E0,7.397049405981E-1,-9.253450432141E-1));
#306=CARTESIAN_POINT('',(0.E0,6.572851548188E-1,-1.110902927168E0));
#307=VERTEX_POINT('',#305);
#308=VERTEX_POINT('',#306);
#309=CARTESIAN_POINT('',(0.E0,1.218037879625E-1,-1.224723005345E0));
#310=VERTEX_POINT('',#309);
#311=CARTESIAN_POINT('',(0.E0,1.738004491233E-1,-1.469348063035E0));
#312=VERTEX_POINT('',#311);
#313=CARTESIAN_POINT('',(0.E0,1.249602523556E0,-1.240679273056E0));
#314=VERTEX_POINT('',#313);
#315=CARTESIAN_POINT('',(0.E0,1.197605862395E0,-9.960542153662E-1));
#316=VERTEX_POINT('',#315);
#317=CARTESIAN_POINT('',(0.E0,9.897049405981E-1,-7.495483481216E-1));
#318=VERTEX_POINT('',#317);
#319=CARTESIAN_POINT('',(0.E0,-1.250397476444E0,2.469107699497E0));
#320=CARTESIAN_POINT('',(0.E0,-1.000307349447E0,2.469107699497E0));
#321=VERTEX_POINT('',#319);
#322=VERTEX_POINT('',#320);
#323=CARTESIAN_POINT('',(0.E0,-1.000307349447E0,2.269222406584E0));
#324=CARTESIAN_POINT('',(0.E0,-7.502172224498E-1,2.269222406584E0));
#325=VERTEX_POINT('',#323);
#326=VERTEX_POINT('',#324);
#327=CARTESIAN_POINT('',(0.E0,-7.502172224498E-1,2.469107699497E0));
#328=CARTESIAN_POINT('',(0.E0,4.910325250448E-1,2.469107699497E0));
#329=VERTEX_POINT('',#327);
#330=VERTEX_POINT('',#328);
#331=CARTESIAN_POINT('',(0.E0,7.397049405981E-1,2.692606448863E0));
#332=VERTEX_POINT('',#331);
#333=CARTESIAN_POINT('',(0.E0,7.397049405981E-1,3.863773469655E0));
#334=CARTESIAN_POINT('',(0.E0,6.572851548188E-1,4.049331353609E0));
#335=VERTEX_POINT('',#333);
#336=VERTEX_POINT('',#334);
#337=CARTESIAN_POINT('',(0.E0,1.218037879625E-1,4.163151431786E0));
#338=VERTEX_POINT('',#337);
#339=CARTESIAN_POINT('',(0.E0,1.738004491233E-1,4.407776489475E0));
#340=VERTEX_POINT('',#339);
#341=CARTESIAN_POINT('',(0.E0,1.249602523556E0,4.179107699497E0));
#342=VERTEX_POINT('',#341);
#343=CARTESIAN_POINT('',(0.E0,1.197605862395E0,3.934482641807E0));
#344=VERTEX_POINT('',#343);
#345=CARTESIAN_POINT('',(0.E0,9.897049405981E-1,3.687976774562E0));
#346=VERTEX_POINT('',#345);
#347=CARTESIAN_POINT('',(6.1E-1,-1.250397476444E0,1.469214213220E0));
#348=CARTESIAN_POINT('',(-6.1E-1,-1.250397476444E0,1.469214213220E0));
#349=VERTEX_POINT('',#347);
#350=VERTEX_POINT('',#348);
#351=CARTESIAN_POINT('',(5.E-1,-1.140397476444E0,1.469214213220E0));
#352=CARTESIAN_POINT('',(-5.E-1,-1.140397476444E0,1.469214213220E0));
#353=VERTEX_POINT('',#351);
#354=VERTEX_POINT('',#352);
#355=CARTESIAN_POINT('',(5.6E-1,9.897049405981E-1,1.469214213220E0));
#356=CARTESIAN_POINT('',(-5.6E-1,9.897049405981E-1,1.469214213220E0));
#357=VERTEX_POINT('',#355);
#358=VERTEX_POINT('',#356);
#359=CARTESIAN_POINT('',(5.E-1,9.297049405981E-1,1.469214213220E0));
#360=CARTESIAN_POINT('',(-5.E-1,9.297049405981E-1,1.469214213220E0));
#361=VERTEX_POINT('',#359);
#362=VERTEX_POINT('',#360);
#363=CARTESIAN_POINT('',(0.E0,-1.250397476444E0,1.469214213220E0));
#364=DIRECTION('',(0.E0,-1.E0,0.E0));
#365=DIRECTION('',(0.E0,0.E0,1.E0));
#366=AXIS2_PLACEMENT_3D('',#363,#364,#365);
#367=PLANE('',#366);
#369=ORIENTED_EDGE('',*,*,#368,.T.);
#371=ORIENTED_EDGE('',*,*,#370,.F.);
#372=EDGE_LOOP('',(#369,#371));
#373=FACE_OUTER_BOUND('',#372,.F.);
#375=ORIENTED_EDGE('',*,*,#374,.F.);
#377=ORIENTED_EDGE('',*,*,#376,.F.);
#378=EDGE_LOOP('',(#375,#377));
#379=FACE_BOUND('',#378,.F.);
#380=ADVANCED_FACE('',(#373,#379),#367,.T.);
#381=CARTESIAN_POINT('',(0.E0,0.E0,1.469214213220E0));
#382=DIRECTION('',(0.E0,-1.E0,0.E0));
#383=DIRECTION('',(0.E0,0.E0,1.E0));
#384=AXIS2_PLACEMENT_3D('',#381,#382,#383);
#385=CYLINDRICAL_SURFACE('',#384,9.998934862761E-1);
#387=ORIENTED_EDGE('',*,*,#386,.T.);
#389=ORIENTED_EDGE('',*,*,#388,.T.);
#391=ORIENTED_EDGE('',*,*,#390,.F.);
#392=ORIENTED_EDGE('',*,*,#368,.F.);
#393=EDGE_LOOP('',(#387,#389,#391,#392));
#394=FACE_OUTER_BOUND('',#393,.F.);
#395=ADVANCED_FACE('',(#394),#385,.T.);
#396=CARTESIAN_POINT('',(0.E0,0.E0,1.469214213220E0));
#397=DIRECTION('',(0.E0,-1.E0,0.E0));
#398=DIRECTION('',(0.E0,0.E0,1.E0));
#399=AXIS2_PLACEMENT_3D('',#396,#397,#398);
#400=CYLINDRICAL_SURFACE('',#399,9.998934862761E-1);
#401=ORIENTED_EDGE('',*,*,#386,.F.);
#402=ORIENTED_EDGE('',*,*,#370,.T.);
#403=ORIENTED_EDGE('',*,*,#390,.T.);
#405=ORIENTED_EDGE('',*,*,#404,.F.);
#406=EDGE_LOOP('',(#401,#402,#403,#405));
#407=FACE_OUTER_BOUND('',#406,.F.);
#408=ADVANCED_FACE('',(#407),#400,.T.);
#409=CARTESIAN_POINT('',(0.E0,-1.000307349447E0,1.469214213220E0));
#410=DIRECTION('',(0.E0,-1.E0,0.E0));
#411=DIRECTION('',(0.E0,0.E0,1.E0));
#412=AXIS2_PLACEMENT_3D('',#409,#410,#411);
#413=PLANE('',#412);
#414=ORIENTED_EDGE('',*,*,#404,.T.);
#415=ORIENTED_EDGE('',*,*,#388,.F.);
#416=EDGE_LOOP('',(#414,#415));
#417=FACE_OUTER_BOUND('',#416,.F.);
#419=ORIENTED_EDGE('',*,*,#418,.T.);
#421=ORIENTED_EDGE('',*,*,#420,.F.);
#422=EDGE_LOOP('',(#419,#421));
#423=FACE_BOUND('',#422,.F.);
#424=ADVANCED_FACE('',(#417,#423),#413,.F.);
#425=CARTESIAN_POINT('',(0.E0,0.E0,1.469214213220E0));
#426=DIRECTION('',(0.E0,-1.E0,0.E0));
#427=DIRECTION('',(0.E0,0.E0,1.E0));
#428=AXIS2_PLACEMENT_3D('',#425,#426,#427);
#429=CYLINDRICAL_SURFACE('',#428,8.000081933634E-1);
#431=ORIENTED_EDGE('',*,*,#430,.T.);
#433=ORIENTED_EDGE('',*,*,#432,.T.);
#435=ORIENTED_EDGE('',*,*,#434,.F.);
#436=ORIENTED_EDGE('',*,*,#418,.F.);
#437=EDGE_LOOP('',(#431,#433,#435,#436));
#438=FACE_OUTER_BOUND('',#437,.F.);
#439=ADVANCED_FACE('',(#438),#429,.T.);
#440=CARTESIAN_POINT('',(0.E0,0.E0,1.469214213220E0));
#441=DIRECTION('',(0.E0,-1.E0,0.E0));
#442=DIRECTION('',(0.E0,0.E0,1.E0));
#443=AXIS2_PLACEMENT_3D('',#440,#441,#442);
#444=CYLINDRICAL_SURFACE('',#443,8.000081933634E-1);
#445=ORIENTED_EDGE('',*,*,#430,.F.);
#446=ORIENTED_EDGE('',*,*,#420,.T.);
#447=ORIENTED_EDGE('',*,*,#434,.T.);
#449=ORIENTED_EDGE('',*,*,#448,.F.);
#450=EDGE_LOOP('',(#445,#446,#447,#449));
#451=FACE_OUTER_BOUND('',#450,.F.);
#452=ADVANCED_FACE('',(#451),#444,.T.);
#453=CARTESIAN_POINT('',(0.E0,-7.502172224498E-1,1.469214213220E0));
#454=DIRECTION('',(0.E0,-1.E0,0.E0));
#455=DIRECTION('',(0.E0,0.E0,1.E0));
#456=AXIS2_PLACEMENT_3D('',#453,#454,#455);
#457=PLANE('',#456);
#459=ORIENTED_EDGE('',*,*,#458,.T.);
#461=ORIENTED_EDGE('',*,*,#460,.F.);
#462=EDGE_LOOP('',(#459,#461));
#463=FACE_OUTER_BOUND('',#462,.F.);
#464=ORIENTED_EDGE('',*,*,#448,.T.);
#465=ORIENTED_EDGE('',*,*,#432,.F.);
#466=EDGE_LOOP('',(#464,#465));
#467=FACE_BOUND('',#466,.F.);
#468=ADVANCED_FACE('',(#463,#467),#457,.T.);
#469=CARTESIAN_POINT('',(0.E0,0.E0,1.469214213220E0));
#470=DIRECTION('',(0.E0,-1.E0,0.E0));
#471=DIRECTION('',(0.E0,0.E0,1.E0));
#472=AXIS2_PLACEMENT_3D('',#469,#470,#471);
#473=CYLINDRICAL_SURFACE('',#472,9.998934862761E-1);
#475=ORIENTED_EDGE('',*,*,#474,.T.);
#477=ORIENTED_EDGE('',*,*,#476,.T.);
#479=ORIENTED_EDGE('',*,*,#478,.F.);
#480=ORIENTED_EDGE('',*,*,#458,.F.);
#481=EDGE_LOOP('',(#475,#477,#479,#480));
#482=FACE_OUTER_BOUND('',#481,.F.);
#483=ADVANCED_FACE('',(#482),#473,.T.);
#484=CARTESIAN_POINT('',(0.E0,0.E0,1.469214213220E0));
#485=DIRECTION('',(0.E0,-1.E0,0.E0));
#486=DIRECTION('',(0.E0,0.E0,1.E0));
#487=AXIS2_PLACEMENT_3D('',#484,#485,#486);
#488=CYLINDRICAL_SURFACE('',#487,9.998934862761E-1);
#489=ORIENTED_EDGE('',*,*,#474,.F.);
#490=ORIENTED_EDGE('',*,*,#460,.T.);
#491=ORIENTED_EDGE('',*,*,#478,.T.);
#493=ORIENTED_EDGE('',*,*,#492,.F.);
#494=EDGE_LOOP('',(#489,#490,#491,#493));
#495=FACE_OUTER_BOUND('',#494,.F.);
#496=ADVANCED_FACE('',(#495),#488,.T.);
#497=CARTESIAN_POINT('',(0.E0,4.910325250448E-1,1.469214213220E0));
#498=DIRECTION('',(0.E0,-1.E0,0.E0));
#499=DIRECTION('',(0.E0,0.E0,1.E0));
#500=AXIS2_PLACEMENT_3D('',#497,#498,#499);
#501=TOROIDAL_SURFACE('',#500,1.249983613273E0,2.500901269971E-1);
#503=ORIENTED_EDGE('',*,*,#502,.F.);
#504=ORIENTED_EDGE('',*,*,#492,.T.);
#506=ORIENTED_EDGE('',*,*,#505,.T.);
#508=ORIENTED_EDGE('',*,*,#507,.F.);
#509=EDGE_LOOP('',(#503,#504,#506,#508));
#510=FACE_OUTER_BOUND('',#509,.F.);
#511=ADVANCED_FACE('',(#510),#501,.F.);
#512=CARTESIAN_POINT('',(0.E0,4.910325250448E-1,1.469214213220E0));
#513=DIRECTION('',(0.E0,-1.E0,0.E0));
#514=DIRECTION('',(0.E0,0.E0,1.E0));
#515=AXIS2_PLACEMENT_3D('',#512,#513,#514);
#516=TOROIDAL_SURFACE('',#515,1.249983613273E0,2.500901269971E-1);
#517=ORIENTED_EDGE('',*,*,#502,.T.);
#519=ORIENTED_EDGE('',*,*,#518,.T.);
#520=ORIENTED_EDGE('',*,*,#505,.F.);
#521=ORIENTED_EDGE('',*,*,#476,.F.);
#522=EDGE_LOOP('',(#517,#519,#520,#521));
#523=FACE_OUTER_BOUND('',#522,.F.);
#524=ADVANCED_FACE('',(#523),#516,.F.);
#525=CARTESIAN_POINT('',(0.E0,7.397049405981E-1,1.469214213220E0));
#526=DIRECTION('',(0.E0,-1.E0,0.E0));
#527=DIRECTION('',(0.E0,0.E0,1.E0));
#528=AXIS2_PLACEMENT_3D('',#525,#526,#527);
#529=PLANE('',#528);
#531=ORIENTED_EDGE('',*,*,#530,.T.);
#533=ORIENTED_EDGE('',*,*,#532,.F.);
#534=EDGE_LOOP('',(#531,#533));
#535=FACE_OUTER_BOUND('',#534,.F.);
#536=ORIENTED_EDGE('',*,*,#507,.T.);
#537=ORIENTED_EDGE('',*,*,#518,.F.);
#538=EDGE_LOOP('',(#536,#537));
#539=FACE_BOUND('',#538,.F.);
#540=ADVANCED_FACE('',(#535,#539),#529,.T.);
#541=CARTESIAN_POINT('',(0.E0,4.896148136010E-1,1.469214213220E0));
#542=DIRECTION('',(0.E0,-1.E0,0.E0));
#543=DIRECTION('',(0.E0,0.E0,1.E0));
#544=AXIS2_PLACEMENT_3D('',#541,#542,#543);
#545=TOROIDAL_SURFACE('',#544,2.394559256435E0,2.500901269971E-1);
#547=ORIENTED_EDGE('',*,*,#546,.T.);
#549=ORIENTED_EDGE('',*,*,#548,.T.);
#551=ORIENTED_EDGE('',*,*,#550,.F.);
#552=ORIENTED_EDGE('',*,*,#530,.F.);
#553=EDGE_LOOP('',(#547,#549,#551,#552));
#554=FACE_OUTER_BOUND('',#553,.F.);
#555=ADVANCED_FACE('',(#554),#545,.F.);
#556=CARTESIAN_POINT('',(0.E0,4.896148136010E-1,1.469214213220E0));
#557=DIRECTION('',(0.E0,-1.E0,0.E0));
#558=DIRECTION('',(0.E0,0.E0,1.E0));
#559=AXIS2_PLACEMENT_3D('',#556,#557,#558);
#560=TOROIDAL_SURFACE('',#559,2.394559256435E0,2.500901269971E-1);
#561=ORIENTED_EDGE('',*,*,#546,.F.);
#562=ORIENTED_EDGE('',*,*,#532,.T.);
#563=ORIENTED_EDGE('',*,*,#550,.T.);
#565=ORIENTED_EDGE('',*,*,#564,.F.);
#566=EDGE_LOOP('',(#561,#562,#563,#565));
#567=FACE_OUTER_BOUND('',#566,.F.);
#568=ADVANCED_FACE('',(#567),#560,.F.);
#569=CARTESIAN_POINT('',(0.E0,3.895444713906E-1,1.469214213220E0));
#570=DIRECTION('',(0.E0,-1.E0,0.E0));
#571=DIRECTION('',(0.E0,0.E0,1.E0));
#572=AXIS2_PLACEMENT_3D('',#569,#570,#571);
#573=CONICAL_SURFACE('',#572,2.637027179477E0,1.2E1);
#575=ORIENTED_EDGE('',*,*,#574,.F.);
#576=ORIENTED_EDGE('',*,*,#564,.T.);
#578=ORIENTED_EDGE('',*,*,#577,.T.);
#580=ORIENTED_EDGE('',*,*,#579,.F.);
#581=EDGE_LOOP('',(#575,#576,#578,#580));
#582=FACE_OUTER_BOUND('',#581,.F.);
#583=ADVANCED_FACE('',(#582),#573,.F.);
#584=CARTESIAN_POINT('',(0.E0,3.895444713906E-1,1.469214213220E0));
#585=DIRECTION('',(0.E0,-1.E0,0.E0));
#586=DIRECTION('',(0.E0,0.E0,1.E0));
#587=AXIS2_PLACEMENT_3D('',#584,#585,#586);
#588=CONICAL_SURFACE('',#587,2.637027179477E0,1.2E1);
#589=ORIENTED_EDGE('',*,*,#574,.T.);
#591=ORIENTED_EDGE('',*,*,#590,.T.);
#592=ORIENTED_EDGE('',*,*,#577,.F.);
#593=ORIENTED_EDGE('',*,*,#548,.F.);
#594=EDGE_LOOP('',(#589,#591,#592,#593));
#595=FACE_OUTER_BOUND('',#594,.F.);
#596=ADVANCED_FACE('',(#595),#588,.F.);
#597=CARTESIAN_POINT('',(0.E0,1.478021185429E-1,1.469214213220E0));
#598=DIRECTION('',(0.E0,1.E0,0.E0));
#599=DIRECTION('',(0.E0,0.E0,-1.E0));
#600=AXIS2_PLACEMENT_3D('',#597,#598,#599);
#601=CONICAL_SURFACE('',#600,2.816249747410E0,7.8E1);
#603=ORIENTED_EDGE('',*,*,#602,.T.);
#605=ORIENTED_EDGE('',*,*,#604,.T.);
#607=ORIENTED_EDGE('',*,*,#606,.F.);
#608=ORIENTED_EDGE('',*,*,#590,.F.);
#609=EDGE_LOOP('',(#603,#605,#607,#608));
#610=FACE_OUTER_BOUND('',#609,.F.);
#611=ADVANCED_FACE('',(#610),#601,.T.);
#612=CARTESIAN_POINT('',(0.E0,1.478021185429E-1,1.469214213220E0));
#613=DIRECTION('',(0.E0,1.E0,0.E0));
#614=DIRECTION('',(0.E0,0.E0,-1.E0));
#615=AXIS2_PLACEMENT_3D('',#612,#613,#614);
#616=CONICAL_SURFACE('',#615,2.816249747410E0,7.8E1);
#617=ORIENTED_EDGE('',*,*,#602,.F.);
#618=ORIENTED_EDGE('',*,*,#579,.T.);
#619=ORIENTED_EDGE('',*,*,#606,.T.);
#621=ORIENTED_EDGE('',*,*,#620,.F.);
#622=EDGE_LOOP('',(#617,#618,#619,#621));
#623=FACE_OUTER_BOUND('',#622,.F.);
#624=ADVANCED_FACE('',(#623),#616,.T.);
#625=CARTESIAN_POINT('',(0.E0,7.117014863396E-1,1.469214213220E0));
#626=DIRECTION('',(0.E0,-1.E0,0.E0));
#627=DIRECTION('',(0.E0,0.E0,1.E0));
#628=AXIS2_PLACEMENT_3D('',#625,#626,#627);
#629=CONICAL_SURFACE('',#628,2.824227881266E0,1.2E1);
#631=ORIENTED_EDGE('',*,*,#630,.F.);
#632=ORIENTED_EDGE('',*,*,#620,.T.);
#634=ORIENTED_EDGE('',*,*,#633,.T.);
#636=ORIENTED_EDGE('',*,*,#635,.F.);
#637=EDGE_LOOP('',(#631,#632,#634,#636));
#638=FACE_OUTER_BOUND('',#637,.F.);
#639=ADVANCED_FACE('',(#638),#629,.T.);
#640=CARTESIAN_POINT('',(0.E0,7.117014863396E-1,1.469214213220E0));
#641=DIRECTION('',(0.E0,-1.E0,0.E0));
#642=DIRECTION('',(0.E0,0.E0,1.E0));
#643=AXIS2_PLACEMENT_3D('',#640,#641,#642);
#644=CONICAL_SURFACE('',#643,2.824227881266E0,1.2E1);
#645=ORIENTED_EDGE('',*,*,#630,.T.);
#647=ORIENTED_EDGE('',*,*,#646,.T.);
#648=ORIENTED_EDGE('',*,*,#633,.F.);
#649=ORIENTED_EDGE('',*,*,#604,.F.);
#650=EDGE_LOOP('',(#645,#647,#648,#649));
#651=FACE_OUTER_BOUND('',#650,.F.);
#652=ADVANCED_FACE('',(#651),#644,.T.);
#653=CARTESIAN_POINT('',(0.E0,1.223604192976E0,1.469214213220E0));
#654=DIRECTION('',(0.E0,1.E0,0.E0));
#655=DIRECTION('',(0.E0,0.E0,-1.E0));
#656=AXIS2_PLACEMENT_3D('',#653,#654,#655);
#657=CONICAL_SURFACE('',#656,2.587580957431E0,7.8E1);
#659=ORIENTED_EDGE('',*,*,#658,.T.);
#661=ORIENTED_EDGE('',*,*,#660,.T.);
#663=ORIENTED_EDGE('',*,*,#662,.F.);
#664=ORIENTED_EDGE('',*,*,#646,.F.);
#665=EDGE_LOOP('',(#659,#661,#663,#664));
#666=FACE_OUTER_BOUND('',#665,.F.);
#667=ADVANCED_FACE('',(#666),#657,.F.);
#668=CARTESIAN_POINT('',(0.E0,1.223604192976E0,1.469214213220E0));
#669=DIRECTION('',(0.E0,1.E0,0.E0));
#670=DIRECTION('',(0.E0,0.E0,-1.E0));
#671=AXIS2_PLACEMENT_3D('',#668,#669,#670);
#672=CONICAL_SURFACE('',#671,2.587580957431E0,7.8E1);
#673=ORIENTED_EDGE('',*,*,#658,.F.);
#674=ORIENTED_EDGE('',*,*,#635,.T.);
#675=ORIENTED_EDGE('',*,*,#662,.T.);
#677=ORIENTED_EDGE('',*,*,#676,.F.);
#678=EDGE_LOOP('',(#673,#674,#675,#677));
#679=FACE_OUTER_BOUND('',#678,.F.);
#680=ADVANCED_FACE('',(#679),#672,.F.);
#681=CARTESIAN_POINT('',(0.E0,1.239795067595E0,1.469214213220E0));
#682=DIRECTION('',(0.E0,-1.E0,0.E0));
#683=DIRECTION('',(0.E0,0.E0,1.E0));
#684=AXIS2_PLACEMENT_3D('',#681,#682,#683);
#685=TOROIDAL_SURFACE('',#684,2.218762561342E0,2.500901269971E-1);
#687=ORIENTED_EDGE('',*,*,#686,.F.);
#688=ORIENTED_EDGE('',*,*,#676,.T.);
#690=ORIENTED_EDGE('',*,*,#689,.T.);
#692=ORIENTED_EDGE('',*,*,#691,.F.);
#693=EDGE_LOOP('',(#687,#688,#690,#692));
#694=FACE_OUTER_BOUND('',#693,.F.);
#695=ADVANCED_FACE('',(#694),#685,.F.);
#696=CARTESIAN_POINT('',(0.E0,1.239795067595E0,1.469214213220E0));
#697=DIRECTION('',(0.E0,-1.E0,0.E0));
#698=DIRECTION('',(0.E0,0.E0,1.E0));
#699=AXIS2_PLACEMENT_3D('',#696,#697,#698);
#700=TOROIDAL_SURFACE('',#699,2.218762561342E0,2.500901269971E-1);
#701=ORIENTED_EDGE('',*,*,#686,.T.);
#703=ORIENTED_EDGE('',*,*,#702,.T.);
#704=ORIENTED_EDGE('',*,*,#689,.F.);
#705=ORIENTED_EDGE('',*,*,#660,.F.);
#706=EDGE_LOOP('',(#701,#703,#704,#705));
#707=FACE_OUTER_BOUND('',#706,.F.);
#708=ADVANCED_FACE('',(#707),#700,.F.);
#709=CARTESIAN_POINT('',(0.E0,9.897049405981E-1,1.469214213220E0));
#710=DIRECTION('',(0.E0,-1.E0,0.E0));
#711=DIRECTION('',(0.E0,0.E0,1.E0));
#712=AXIS2_PLACEMENT_3D('',#709,#710,#711);
#713=PLANE('',#712);
#714=ORIENTED_EDGE('',*,*,#702,.F.);
#715=ORIENTED_EDGE('',*,*,#691,.T.);
#716=EDGE_LOOP('',(#714,#715));
#717=FACE_OUTER_BOUND('',#716,.F.);
#719=ORIENTED_EDGE('',*,*,#718,.F.);
#721=ORIENTED_EDGE('',*,*,#720,.F.);
#722=EDGE_LOOP('',(#719,#721));
#723=FACE_BOUND('',#722,.F.);
#724=ADVANCED_FACE('',(#717,#723),#713,.F.);
#725=CARTESIAN_POINT('',(0.E0,9.597049405852E-1,1.469214213220E0));
#726=DIRECTION('',(0.E0,1.E0,0.E0));
#727=DIRECTION('',(0.E0,0.E0,-1.E0));
#728=AXIS2_PLACEMENT_3D('',#725,#726,#727);
#729=CONICAL_SURFACE('',#728,5.299999999870E-1,4.5E1);
#730=ORIENTED_EDGE('',*,*,#718,.T.);
#732=ORIENTED_EDGE('',*,*,#731,.T.);
#734=ORIENTED_EDGE('',*,*,#733,.F.);
#736=ORIENTED_EDGE('',*,*,#735,.F.);
#737=EDGE_LOOP('',(#730,#732,#734,#736));
#738=FACE_OUTER_BOUND('',#737,.F.);
#739=ADVANCED_FACE('',(#738),#729,.F.);
#740=CARTESIAN_POINT('',(0.E0,9.597049405852E-1,1.469214213220E0));
#741=DIRECTION('',(0.E0,1.E0,0.E0));
#742=DIRECTION('',(0.E0,0.E0,-1.E0));
#743=AXIS2_PLACEMENT_3D('',#740,#741,#742);
#744=CONICAL_SURFACE('',#743,5.299999999870E-1,4.5E1);
#745=ORIENTED_EDGE('',*,*,#720,.T.);
#746=ORIENTED_EDGE('',*,*,#735,.T.);
#748=ORIENTED_EDGE('',*,*,#747,.F.);
#749=ORIENTED_EDGE('',*,*,#731,.F.);
#750=EDGE_LOOP('',(#745,#746,#748,#749));
#751=FACE_OUTER_BOUND('',#750,.F.);
#752=ADVANCED_FACE('',(#751),#744,.F.);
#753=CARTESIAN_POINT('',(0.E0,9.897049405981E-1,1.469214213220E0));
#754=DIRECTION('',(0.E0,1.E0,0.E0));
#755=DIRECTION('',(-1.E0,0.E0,0.E0));
#756=AXIS2_PLACEMENT_3D('',#753,#754,#755);
#757=CYLINDRICAL_SURFACE('',#756,5.E-1);
#759=ORIENTED_EDGE('',*,*,#758,.T.);
#761=ORIENTED_EDGE('',*,*,#760,.F.);
#762=ORIENTED_EDGE('',*,*,#747,.T.);
#764=ORIENTED_EDGE('',*,*,#763,.T.);
#765=EDGE_LOOP('',(#759,#761,#762,#764));
#766=FACE_OUTER_BOUND('',#765,.F.);
#767=ADVANCED_FACE('',(#766),#757,.F.);
#768=CARTESIAN_POINT('',(0.E0,-1.195397476434E0,1.469214213220E0));
#769=DIRECTION('',(0.E0,-1.E0,0.E0));
#770=DIRECTION('',(0.E0,0.E0,-1.E0));
#771=AXIS2_PLACEMENT_3D('',#768,#769,#770);
#772=CONICAL_SURFACE('',#771,5.549999999904E-1,4.5E1);
#773=ORIENTED_EDGE('',*,*,#374,.T.);
#775=ORIENTED_EDGE('',*,*,#774,.T.);
#776=ORIENTED_EDGE('',*,*,#758,.F.);
#778=ORIENTED_EDGE('',*,*,#777,.F.);
#779=EDGE_LOOP('',(#773,#775,#776,#778));
#780=FACE_OUTER_BOUND('',#779,.F.);
#781=ADVANCED_FACE('',(#780),#772,.F.);
#782=CARTESIAN_POINT('',(0.E0,-1.195397476434E0,1.469214213220E0));
#783=DIRECTION('',(0.E0,-1.E0,0.E0));
#784=DIRECTION('',(0.E0,0.E0,-1.E0));
#785=AXIS2_PLACEMENT_3D('',#782,#783,#784);
#786=CONICAL_SURFACE('',#785,5.549999999904E-1,4.5E1);
#787=ORIENTED_EDGE('',*,*,#376,.T.);
#788=ORIENTED_EDGE('',*,*,#777,.T.);
#790=ORIENTED_EDGE('',*,*,#789,.F.);
#791=ORIENTED_EDGE('',*,*,#774,.F.);
#792=EDGE_LOOP('',(#787,#788,#790,#791));
#793=FACE_OUTER_BOUND('',#792,.F.);
#794=ADVANCED_FACE('',(#793),#786,.F.);
#795=CARTESIAN_POINT('',(0.E0,9.897049405981E-1,1.469214213220E0));
#796=DIRECTION('',(0.E0,1.E0,0.E0));
#797=DIRECTION('',(-1.E0,0.E0,0.E0));
#798=AXIS2_PLACEMENT_3D('',#795,#796,#797);
#799=CYLINDRICAL_SURFACE('',#798,5.E-1);
#800=ORIENTED_EDGE('',*,*,#789,.T.);
#801=ORIENTED_EDGE('',*,*,#763,.F.);
#802=ORIENTED_EDGE('',*,*,#733,.T.);
#803=ORIENTED_EDGE('',*,*,#760,.T.);
#804=EDGE_LOOP('',(#800,#801,#802,#803));
#805=FACE_OUTER_BOUND('',#804,.F.);
#806=ADVANCED_FACE('',(#805),#799,.F.);
#809=DIMENSIONAL_EXPONENTS(1.E0,0.E0,0.E0,0.E0,0.E0,0.E0,0.E0);
#811=LENGTH_MEASURE_WITH_UNIT(LENGTH_MEASURE(2.54E1),#810);
#812=(CONVERSION_BASED_UNIT('INCH',#811)LENGTH_UNIT()NAMED_UNIT(#809));
#813=DIMENSIONAL_EXPONENTS(0.E0,0.E0,0.E0,0.E0,0.E0,0.E0,0.E0);
#815=PLANE_ANGLE_MEASURE_WITH_UNIT(PLANE_ANGLE_MEASURE(1.745329251994E-2),#814);
#816=(CONVERSION_BASED_UNIT('DEGREE',#815)NAMED_UNIT(*)PLANE_ANGLE_UNIT());
#818=UNCERTAINTY_MEASURE_WITH_UNIT(LENGTH_MEASURE(3.9E-4),#812,'closure',
'Maximum model space distance between geometric entities at asserted connectivities');
#819=(GEOMETRIC_REPRESENTATION_CONTEXT(3)GLOBAL_UNCERTAINTY_ASSIGNED_CONTEXT((
#818))GLOBAL_UNIT_ASSIGNED_CONTEXT((#812,#816,#817))REPRESENTATION_CONTEXT
('ID1','3'));
#821=APPLICATION_CONTEXT(
'CONFIGURATION CONTROLLED 3D DESIGNS OF MECHANICAL PARTS AND ASSEMBLIES');
#822=APPLICATION_PROTOCOL_DEFINITION('international standard',
'config_control_design',1994,#821);
#823=DESIGN_CONTEXT('',#821,'design');
#824=MECHANICAL_CONTEXT('',#821,'mechanical');
#825=PRODUCT('REVOLVECLUTCH','REVOLVECLUTCH','NOT SPECIFIED',(#824));
#826=PRODUCT_DEFINITION_FORMATION_WITH_SPECIFIED_SOURCE('6','LAST_VERSION',#825,
.MADE.);
#830=PRODUCT_CATEGORY('part','');
#831=PRODUCT_RELATED_PRODUCT_CATEGORY('detail','',(#825));
#832=PRODUCT_CATEGORY_RELATIONSHIP('','',#830,#831);
#833=SECURITY_CLASSIFICATION_LEVEL('unclassified');
#834=SECURITY_CLASSIFICATION('','',#833);
#835=CC_DESIGN_SECURITY_CLASSIFICATION(#834,(#826));
#836=APPROVAL_STATUS('approved');
#837=APPROVAL(#836,'');
#838=CC_DESIGN_APPROVAL(#837,(#834,#826,#827));
#839=CALENDAR_DATE(126,24,7);
#840=COORDINATED_UNIVERSAL_TIME_OFFSET(4,0,.BEHIND.);
#841=LOCAL_TIME(13,16,6.E0,#840);
#842=DATE_AND_TIME(#839,#841);
#843=APPROVAL_DATE_TIME(#842,#837);
#844=DATE_TIME_ROLE('creation_date');
#845=CC_DESIGN_DATE_AND_TIME_ASSIGNMENT(#842,#844,(#827));
#846=DATE_TIME_ROLE('classification_date');
#847=CC_DESIGN_DATE_AND_TIME_ASSIGNMENT(#842,#846,(#834));
#848=PERSON('UNSPECIFIED','UNSPECIFIED',$,$,$,$);
#849=ORGANIZATION('UNSPECIFIED','UNSPECIFIED','UNSPECIFIED');
#850=PERSON_AND_ORGANIZATION(#848,#849);
#851=APPROVAL_ROLE('approver');
#852=APPROVAL_PERSON_ORGANIZATION(#850,#837,#851);
#853=PERSON_AND_ORGANIZATION_ROLE('creator');
#854=CC_DESIGN_PERSON_AND_ORGANIZATION_ASSIGNMENT(#850,#853,(#826,#827));
#855=PERSON_AND_ORGANIZATION_ROLE('design_supplier');
#856=CC_DESIGN_PERSON_AND_ORGANIZATION_ASSIGNMENT(#850,#855,(#826));
#857=PERSON_AND_ORGANIZATION_ROLE('classification_officer');
#858=CC_DESIGN_PERSON_AND_ORGANIZATION_ASSIGNMENT(#850,#857,(#834));
#859=PERSON_AND_ORGANIZATION_ROLE('design_owner');
#860=CC_DESIGN_PERSON_AND_ORGANIZATION_ASSIGNMENT(#850,#859,(#825));
#5=CIRCLE('',#4,6.1E-1);
#10=CIRCLE('',#9,6.1E-1);
#23=CIRCLE('',#22,9.998934862761E-1);
#28=CIRCLE('',#27,9.998934862761E-1);
#33=CIRCLE('',#32,9.998934862761E-1);
#38=CIRCLE('',#37,9.998934862761E-1);
#51=CIRCLE('',#50,8.000081933634E-1);
#56=CIRCLE('',#55,8.000081933634E-1);
#61=CIRCLE('',#60,8.000081933634E-1);
#66=CIRCLE('',#65,8.000081933634E-1);
#79=CIRCLE('',#78,9.998934862761E-1);
#84=CIRCLE('',#83,9.998934862761E-1);
#89=CIRCLE('',#88,9.998934862761E-1);
#94=CIRCLE('',#93,2.500901269971E-1);
#99=CIRCLE('',#98,2.500901269971E-1);
#104=CIRCLE('',#103,9.998934862761E-1);
#109=CIRCLE('',#108,1.223392235642E0);
#114=CIRCLE('',#113,1.223392235642E0);
#119=CIRCLE('',#118,2.500901269971E-1);
#124=CIRCLE('',#123,2.500901269971E-1);
#129=CIRCLE('',#128,2.394559256435E0);
#134=CIRCLE('',#133,2.394559256435E0);
#139=CIRCLE('',#138,2.580117140388E0);
#152=CIRCLE('',#151,2.580117140388E0);
#165=CIRCLE('',#164,2.693937218566E0);
#170=CIRCLE('',#169,2.693937218566E0);
#175=CIRCLE('',#174,2.938562276255E0);
#188=CIRCLE('',#187,2.938562276255E0);
#201=CIRCLE('',#200,2.709893486276E0);
#206=CIRCLE('',#205,2.709893486276E0);
#211=CIRCLE('',#210,2.465268428587E0);
#216=CIRCLE('',#215,2.500901269971E-1);
#221=CIRCLE('',#220,2.500901269971E-1);
#226=CIRCLE('',#225,2.465268428587E0);
#231=CIRCLE('',#230,2.218762561342E0);
#236=CIRCLE('',#235,2.218762561342E0);
#241=CIRCLE('',#240,5.6E-1);
#246=CIRCLE('',#245,5.6E-1);
#259=CIRCLE('',#258,5.E-1);
#264=CIRCLE('',#263,5.E-1);
#281=CIRCLE('',#280,5.E-1);
#286=CIRCLE('',#285,5.E-1);
#368=EDGE_CURVE('',#293,#321,#23,.T.);
#370=EDGE_CURVE('',#293,#321,#28,.T.);
#374=EDGE_CURVE('',#349,#350,#5,.T.);
#376=EDGE_CURVE('',#350,#349,#10,.T.);
#386=EDGE_CURVE('',#293,#294,#14,.T.);
#388=EDGE_CURVE('',#294,#322,#38,.T.);
#390=EDGE_CURVE('',#321,#322,#18,.T.);
#404=EDGE_CURVE('',#294,#322,#33,.T.);
#418=EDGE_CURVE('',#297,#325,#51,.T.);
#420=EDGE_CURVE('',#297,#325,#56,.T.);
#430=EDGE_CURVE('',#297,#298,#42,.T.);
#432=EDGE_CURVE('',#298,#326,#66,.T.);
#434=EDGE_CURVE('',#325,#326,#46,.T.);
#448=EDGE_CURVE('',#298,#326,#61,.T.);
#458=EDGE_CURVE('',#301,#329,#79,.T.);
#460=EDGE_CURVE('',#301,#329,#84,.T.);
#474=EDGE_CURVE('',#301,#302,#70,.T.);
#476=EDGE_CURVE('',#302,#330,#104,.T.);
#478=EDGE_CURVE('',#329,#330,#74,.T.);
#492=EDGE_CURVE('',#302,#330,#89,.T.);
#502=EDGE_CURVE('',#302,#304,#94,.T.);
#505=EDGE_CURVE('',#330,#332,#99,.T.);
#507=EDGE_CURVE('',#304,#332,#109,.T.);
#518=EDGE_CURVE('',#304,#332,#114,.T.);
#530=EDGE_CURVE('',#307,#335,#129,.T.);
#532=EDGE_CURVE('',#307,#335,#134,.T.);
#546=EDGE_CURVE('',#307,#308,#119,.T.);
#548=EDGE_CURVE('',#308,#336,#152,.T.);
#550=EDGE_CURVE('',#335,#336,#124,.T.);
#564=EDGE_CURVE('',#308,#336,#139,.T.);
#574=EDGE_CURVE('',#308,#310,#143,.T.);
#577=EDGE_CURVE('',#336,#338,#147,.T.);
#579=EDGE_CURVE('',#310,#338,#170,.T.);
#590=EDGE_CURVE('',#310,#338,#165,.T.);
#602=EDGE_CURVE('',#310,#312,#156,.T.);
#604=EDGE_CURVE('',#312,#340,#188,.T.);
#606=EDGE_CURVE('',#338,#340,#160,.T.);
#620=EDGE_CURVE('',#312,#340,#175,.T.);
#630=EDGE_CURVE('',#312,#314,#179,.T.);
#633=EDGE_CURVE('',#340,#342,#183,.T.);
#635=EDGE_CURVE('',#314,#342,#206,.T.);
#646=EDGE_CURVE('',#314,#342,#201,.T.);
#658=EDGE_CURVE('',#314,#316,#192,.T.);
#660=EDGE_CURVE('',#316,#344,#226,.T.);
#662=EDGE_CURVE('',#342,#344,#196,.T.);
#676=EDGE_CURVE('',#316,#344,#211,.T.);
#686=EDGE_CURVE('',#316,#318,#216,.T.);
#689=EDGE_CURVE('',#344,#346,#221,.T.);
#691=EDGE_CURVE('',#318,#346,#236,.T.);
#702=EDGE_CURVE('',#318,#346,#231,.T.);
#718=EDGE_CURVE('',#357,#358,#241,.T.);
#720=EDGE_CURVE('',#358,#357,#246,.T.);
#731=EDGE_CURVE('',#358,#362,#254,.T.);
#733=EDGE_CURVE('',#361,#362,#286,.T.);
#735=EDGE_CURVE('',#357,#361,#250,.T.);
#747=EDGE_CURVE('',#362,#361,#264,.T.);
#758=EDGE_CURVE('',#353,#354,#259,.T.);
#760=EDGE_CURVE('',#362,#354,#290,.T.);
#763=EDGE_CURVE('',#361,#353,#268,.T.);
#774=EDGE_CURVE('',#350,#354,#276,.T.);
#777=EDGE_CURVE('',#349,#353,#272,.T.);
#789=EDGE_CURVE('',#354,#353,#281,.T.);
#807=CLOSED_SHELL('',(#380,#395,#408,#424,#439,#452,#468,#483,#496,#511,#524,
#540,#555,#568,#583,#596,#611,#624,#639,#652,#667,#680,#695,#708,#724,#739,#752,
#767,#781,#794,#806));
#808=MANIFOLD_SOLID_BREP('',#807);
#810=(LENGTH_UNIT()NAMED_UNIT(*)SI_UNIT(.MILLI.,.METRE.));
#814=(NAMED_UNIT(*)PLANE_ANGLE_UNIT()SI_UNIT($,.RADIAN.));
#817=(NAMED_UNIT(*)SI_UNIT($,.STERADIAN.)SOLID_ANGLE_UNIT());
#820=ADVANCED_BREP_SHAPE_REPRESENTATION('',(#808),#819);
#827=PRODUCT_DEFINITION('design','',#826,#823);
#828=PRODUCT_DEFINITION_SHAPE('','SHAPE FOR REVOLVECLUTCH.',#827);
#829=SHAPE_DEFINITION_REPRESENTATION(#828,#820);
ENDSEC;
END-ISO-10303-21;
